<?xml version="1.0" standalone="no"?>
<!DOCTYPE svg PUBLIC "-//W3C//DTD SVG 20010904//EN"
 "http://www.w3.org/TR/2001/REC-SVG-20010904/DTD/svg10.dtd">
<svg version="1.0" xmlns="http://www.w3.org/2000/svg"
 width="700.000000pt" height="700.000000pt" viewBox="0 0 700.000000 700.000000"
 preserveAspectRatio="xMidYMid meet">
<metadata>
Created by potrace 1.14, written by Peter Selinger 2001-2017
</metadata>
<g transform="translate(0.000000,700.000000) scale(0.100000,-0.100000)"
fill="#000000" stroke="none">
<path d="M4770 3968 c0 -1668 0 -3127 0 -3243 l0 -210 -25 29 c-14 17 -67 75
-118 129 -51 55 -96 105 -102 111 -20 22 -220 241 -225 246 -3 3 -30 32 -60
65 -150 164 -268 292 -290 316 -14 14 -43 46 -64 70 -22 24 -81 89 -132 144
-51 55 -101 110 -111 122 -11 12 -60 66 -109 119 -49 54 -98 107 -109 119 -11
13 -63 69 -115 125 -52 57 -102 111 -111 121 -9 10 -56 62 -105 116 -49 53
-98 107 -109 119 -11 12 -63 68 -115 124 -52 57 -103 112 -113 124 -10 12 -37
41 -60 66 -23 25 -92 99 -152 165 -60 66 -130 143 -156 170 -25 28 -57 62 -70
76 -13 15 -63 69 -110 120 -47 52 -106 116 -131 143 l-44 48 1 -1748 0 -1749
102 -2 103 -2 1 32 c0 18 0 683 1 1480 l0 1447 32 -33 c17 -19 76 -82 131
-142 103 -111 118 -127 214 -231 191 -205 266 -287 281 -304 9 -10 62 -68 117
-127 56 -59 114 -121 129 -138 15 -16 56 -61 92 -100 177 -190 386 -416 403
-436 9 -11 68 -74 131 -142 63 -67 174 -187 248 -267 73 -80 180 -195 237
-256 57 -62 111 -121 121 -131 9 -11 69 -76 132 -143 63 -68 126 -136 140
-151 14 -15 68 -73 120 -130 52 -56 121 -130 152 -163 l57 -61 1 3498 0 3497
-105 0 -105 0 0 -3032z"/>
</g>
</svg>
