<?xml version="1.0" encoding="utf-8"?>
<!-- Generator: Adobe Illustrator 28.3.0, SVG Export Plug-In . SVG Version: 6.00 Build 0)  -->
<svg version="1.1" id="Layer_1" xmlns="http://www.w3.org/2000/svg" xmlns:xlink="http://www.w3.org/1999/xlink" x="0px" y="0px"
	 viewBox="0 0 108.1 50.7" style="enable-background:new 0 0 108.1 50.7;" xml:space="preserve">
<style type="text/css">
	.st0{clip-path:url(#SVGID_00000051364317811063005670000017528102392192070331_);}
</style>
<rect x="88.4" y="0" width="1.5" height="25.3"/>
<polygon points="33.1,25.3 26,46.5 17.2,25.3 8.4,46.5 1.6,25.3 0,25.3 8.1,50.5 17.1,29.1 26.1,50.6 34.7,25.3 "/>
<polygon points="65.2,21.6 56.2,0 47.6,25.4 49.2,25.4 56.3,4.2 65.1,25.4 73.9,4.2 80.7,25.4 82.3,25.4 74.2,0 "/>
<polygon points="88.4,25.3 88.4,46.9 68.6,25.3 68.6,50.6 70.1,50.6 70.1,29.2 89.9,50.6 89.9,25.3 "/>
<polygon points="32.5,50.6 34.1,50.6 41.1,29.5 48,50.6 49.7,50.6 41.1,25.3 "/>
<rect x="36.3" y="41.7" width="9.5" height="1.4"/>
<polygon points="23.9,25.4 25.6,25.4 32.5,4.2 39.5,25.4 41.1,25.4 32.5,0 "/>
<rect x="27.8" y="16.4" width="9.5" height="1.4"/>
<polygon points="57.1,38.4 52.8,25.3 51.3,25.3 57.1,42.6 63,25.3 61.5,25.3 "/>
<rect x="56.4" y="39.1" width="1.4" height="11.5"/>
<g>
	<defs>
		<rect id="SVGID_1_" x="0" width="108.1" height="50.7"/>
	</defs>
	<clipPath id="SVGID_00000049924356884499465770000014479910104678731904_">
		<use xlink:href="#SVGID_1_"  style="overflow:visible;"/>
	</clipPath>
	<path style="clip-path:url(#SVGID_00000049924356884499465770000014479910104678731904_);" d="M1.7,17.7c0.1,1.4,0.4,2.7,1.3,3.7
		c1.3,1.6,3.8,2.4,5.8,2.4c2,0,4.5-0.8,5.8-2.4c1.3-1.7,1.3-4.1,1.3-6.3V0h1.6v15.5c0,2.6,0,4.8-1.7,6.9c-1.7,1.9-4.4,2.9-7,2.9
		s-5.2-1-7-2.9c-1.1-1.4-1.5-3-1.7-4.7"/>
</g>
<polygon points="96.2,25.3 96.2,50.7 108.1,50.7 108.1,49.3 97.7,49.3 97.7,38.7 107.3,38.7 107.3,37.3 97.7,37.3 97.7,25.3 "/>
<rect x="97.7" y="24.6" width="10.4" height="1.4"/>
<polygon points="96.2,0 96.2,25.4 97.7,25.4 97.7,13.4 107.3,13.4 107.3,12 97.7,12 97.7,1.4 108.1,1.4 108.1,0 "/>
<rect x="97.7" y="24.6" width="10.4" height="1.4"/>
</svg>
