<?xml version="1.0" encoding="utf-8"?>
<!-- Generator: Adobe Illustrator 28.3.0, SVG Export Plug-In . SVG Version: 6.00 Build 0)  -->
<svg version="1.1" id="Layer_1" xmlns="http://www.w3.org/2000/svg" xmlns:xlink="http://www.w3.org/1999/xlink" x="0px" y="0px"
	 viewBox="0 0 1662.2 339" style="enable-background:new 0 0 1662.2 339;" xml:space="preserve">
<style type="text/css">
	.st0{fill:#32373C;}
</style>
<g id="Logotype">
	<g id="Wordmark">
		<path class="st0" d="M945,125.8h-67.4v7.2c21.1,0,24.5,4.5,24.5,31.3v48.2c0,26.7-3.4,31.6-24.5,31.6
			c-16.2-2.3-27.1-10.9-42.2-27.5l-17.3-18.8c23.3-4.1,35.8-18.8,35.8-35.4c0-20.7-17.7-36.5-50.8-36.5h-66.3v7.2
			c21.1,0,24.5,4.5,24.5,31.3v48.2c0,26.7-3.4,31.6-24.5,31.6v7.2h75v-7.2c-21.1,0-24.5-4.9-24.5-31.6v-13.6h6.4l41.8,52.3H945
			c53.9,0,77.2-28.6,77.2-62.9C1022.2,154.1,998.8,125.8,945,125.8z M787.2,187.2v-50.1h15.4c16.9,0,24.5,11.7,24.5,25.2
			c0,13.2-7.5,24.9-24.5,24.9H787.2z M946.1,239.5h-2.6c-13.6,0-15.4-3.4-15.4-20.7v-81.7c0,0,16.6,0,18.1,0
			c39.2,0,46.3,28.6,46.3,50.8C992.4,210.9,985.3,239.5,946.1,239.5z"/>
		<path class="st0" d="M526.9,201.1l26-76.8c7.5-22.2,4.1-28.6-20-28.6v-7.5h70.8v7.5c-23.7,0-29.4,5.6-38.8,33.1L522,257.6h-4.9
			l-38.4-117.9l-39.2,117.9h-4.9l-41.8-128.8c-9-27.5-15.1-33.1-36.9-33.1v-7.5h83.6v7.5c-22.2,0-28.3,5.3-20.3,28.6l25.2,76.8
			l38-113h7.2L526.9,201.1z"/>
		<path class="st0" d="M655,256.1c-41.4,0-75.3-30.5-75.3-67.8c0-36.9,33.9-67.4,75.3-67.4c41.4,0,75.3,30.5,75.3,67.4
			C730.3,225.6,696.4,256.1,655,256.1z M655,132.6c-34.6,0-46.7,31.3-46.7,55.7c0,24.9,12.1,55.7,46.7,55.7
			c35,0,47.1-30.9,47.1-55.7C702.1,163.8,690,132.6,655,132.6z"/>
		<path class="st0" d="M1115.2,243.7v7.5H1029v-7.5c25.2,0,29.8-6.4,29.8-44.1v-60.3c0-37.7-4.5-43.7-29.8-43.7v-7.5h78
			c38.8,0,60.3,20,60.3,46.7c0,26-21.5,46.3-60.3,46.3h-21.5v18.5C1085.5,237.3,1090,243.7,1115.2,243.7z M1106.9,101.7h-21.5v65.5
			h21.5c21.1,0,30.9-14.7,30.9-32.4C1137.8,116.8,1128,101.7,1106.9,101.7z"/>
		<path class="st0" d="M1425.9,215.8l-1.9,6.8c-3.4,12.4-7.5,16.9-34.3,16.9h-5.3c-19.6,0-23-4.5-23-31.3V191
			c29.4,0,31.6,2.6,31.6,22.2h7.2v-56.1h-7.2c0,19.6-2.3,22.2-31.6,22.2v-42.2h20.7c26.7,0,30.9,4.5,34.3,16.9l1.9,7.2h6l-2.6-35.4
			h-110.7v7.2c21.1,0,24.5,4.5,24.5,31.3v48.2c0,24.5-2.9,30.6-19.5,31.5c-15.8-2.4-26.7-11-41.5-27.4l-17.3-18.8
			c23.4-4.1,35.8-18.8,35.8-35.4c0-20.7-17.7-36.5-50.8-36.5h-66.3v7.2c21.1,0,24.5,4.5,24.5,31.3v48.2c0,26.7-3.4,31.6-24.5,31.6
			v7.2h75v-7.2c-21.1,0-24.5-4.9-24.5-31.6v-13.6h6.4l41.8,52.3h154.8l2.3-35.4H1425.9z M1226.3,187.2v-50.1h15.4
			c16.9,0,24.5,11.7,24.5,25.2c0,13.2-7.5,24.9-24.5,24.9H1226.3z"/>
		<path class="st0" d="M1502.4,256.1c-15.1,0-28.3-7.9-33.9-12.8c-1.9,1.9-5.3,7.5-6,12.8h-7.2v-52h7.5c3,24.9,20.3,39.5,42.6,39.5
			c12.1,0,21.8-6.8,21.8-18.1c0-9.8-8.7-17.3-24.1-24.5l-21.5-10.2c-15.1-7.2-26.4-19.6-26.4-36.2c0-18.1,16.9-33.5,40.3-33.5
			c12.4,0,23,4.5,29.4,9.8c1.9-1.5,3.8-5.7,4.9-10.2h7.2v44.4h-7.9c-2.6-17.7-12.4-32.4-32.4-32.4c-10.5,0-20.3,6-20.3,15.4
			c0,9.8,7.9,15.1,26,23.3l20.7,10.2c18.1,8.7,25.2,22.6,25.2,33.9C1548.4,239.5,1527.6,256.1,1502.4,256.1z"/>
		<path class="st0" d="M1616.3,256.1c-15.1,0-28.3-7.9-33.9-12.8c-1.9,1.9-5.3,7.5-6,12.8h-7.2v-52h7.5c3,24.9,20.3,39.5,42.6,39.5
			c12.1,0,21.8-6.8,21.8-18.1c0-9.8-8.7-17.3-24.1-24.5l-21.5-10.2c-15.1-7.2-26.4-19.6-26.4-36.2c0-18.1,16.9-33.5,40.3-33.5
			c12.4,0,23,4.5,29.4,9.8c1.9-1.5,3.8-5.7,4.9-10.2h7.2v44.4h-7.9c-2.6-17.7-12.4-32.4-32.4-32.4c-10.5,0-20.3,6-20.3,15.4
			c0,9.8,7.9,15.1,26,23.3l20.7,10.2c18.1,8.7,25.2,22.6,25.2,33.9C1662.2,239.5,1641.5,256.1,1616.3,256.1z"/>
	</g>
	<g id="W_Mark">
		<path class="st0" d="M169.5,10.2c21.5,0,42.4,4.2,62,12.5c9.4,4,18.5,8.9,27.1,14.7c8.4,5.7,16.4,12.2,23.6,19.5
			c7.2,7.2,13.8,15.1,19.5,23.6c5.8,8.5,10.7,17.6,14.7,27.1c8.3,19.6,12.5,40.5,12.5,62s-4.2,42.4-12.5,62
			c-4,9.4-8.9,18.5-14.7,27.1c-5.7,8.4-12.2,16.4-19.5,23.6c-7.2,7.2-15.1,13.8-23.6,19.5c-8.5,5.8-17.6,10.7-27.1,14.7
			c-19.6,8.3-40.5,12.5-62,12.5c-21.5,0-42.4-4.2-62-12.5c-9.4-4-18.5-8.9-27.1-14.7c-8.4-5.7-16.4-12.2-23.6-19.5
			c-7.2-7.2-13.8-15.1-19.5-23.6c-5.8-8.5-10.7-17.6-14.7-27.1c-8.3-19.6-12.5-40.5-12.5-62s4.2-42.4,12.5-62
			c4-9.4,8.9-18.5,14.7-27.1C43.1,72,49.6,64,56.8,56.8C64,49.6,72,43.1,80.4,37.4c8.5-5.8,17.6-10.7,27.1-14.7
			C127.1,14.4,148,10.2,169.5,10.2 M169.5,0C75.9,0,0,75.9,0,169.5C0,263.1,75.9,339,169.5,339c93.6,0,169.5-75.9,169.5-169.5
			C339,75.9,263.1,0,169.5,0L169.5,0z"/>
		<path class="st0" d="M28.2,169.5c0,55.9,32.5,104.2,79.6,127.1L40.5,112C32.6,129.6,28.2,149,28.2,169.5z M264.8,162.4
			c0-17.5-6.3-29.5-11.6-39c-7.2-11.6-13.9-21.5-13.9-33.1c0-13,9.8-25.1,23.7-25.1c0.6,0,1.2,0.1,1.8,0.1
			c-25.1-23-58.6-37.1-95.4-37.1c-49.3,0-92.8,25.3-118,63.7c3.3,0.1,6.4,0.2,9.1,0.2c14.8,0,37.6-1.8,37.6-1.8
			c7.6-0.4,8.5,10.7,0.9,11.6c0,0-7.7,0.9-16.2,1.3l51.4,153l30.9-92.7l-22-60.3c-7.6-0.4-14.8-1.3-14.8-1.3
			c-7.6-0.4-6.7-12.1,0.9-11.6c0,0,23.3,1.8,37.2,1.8c14.8,0,37.6-1.8,37.6-1.8c7.6-0.4,8.5,10.7,0.9,11.6c0,0-7.7,0.9-16.2,1.3
			l51,151.8l14.6-46.2C261,188.7,264.8,174.4,264.8,162.4z M172,181.8L129.6,305c12.7,3.7,26,5.8,39.9,5.8c16.4,0,32.2-2.8,46.9-8
			c-0.4-0.6-0.7-1.2-1-1.9L172,181.8z M293.4,101.7c0.6,4.5,0.9,9.3,0.9,14.5c0,14.3-2.7,30.4-10.7,50.6l-43.1,124.7
			c42-24.5,70.2-70,70.2-122.1C310.7,144.9,304.5,121.8,293.4,101.7z"/>
	</g>
</g>
</svg>
